<svg width="85" height="20" viewBox="0 0 85 20" fill="none" xmlns="http://www.w3.org/2000/svg">
<path d="M6.53139 8.744H15.1554V13.728H6.53139V8.744ZM6.97939 20H0.371391V0.399999H16.3034V5.384H6.97939V20ZM18.3909 20V0.399999H24.9989V14.876H33.8469V20H18.3909ZM35.6722 20V0.399999H42.2802V20H35.6722ZM43.6412 20L52.3772 7.792L52.3492 12.412L43.8932 0.399999H51.3132L56.2412 7.68L53.0772 7.708L57.8932 0.399999H65.0052L56.5492 12.16V7.568L65.4252 20H57.8652L52.9372 12.384L55.9892 12.356L51.1732 20H43.6412ZM70.9817 20V11.404L72.4937 15.352L63.5897 0.399999H70.5617L76.5817 10.62H72.5217L78.5977 0.399999H84.9817L76.1337 15.352L77.5897 11.404V20H70.9817Z" fill="url(#paint0_linear_322_25)"/>
<defs>
<linearGradient id="paint0_linear_322_25" x1="41.5" y1="24" x2="41.5" y2="-5" gradientUnits="userSpaceOnUse">
<stop stop-color="white"/>
<stop offset="1" stop-color="#F5C518"/>
</linearGradient>
</defs>
</svg>
