<svg width="75" height="19" viewBox="0 0 75 19" fill="none" xmlns="http://www.w3.org/2000/svg">
<path d="M8.58398 13.502V16.9609C8.16471 17.3255 7.60417 17.6309 6.90234 17.877C6.20964 18.123 5.36198 18.2461 4.35938 18.2461C3.36589 18.2461 2.50911 18.0228 1.78906 17.5762C0.996094 17.0931 0.599609 16.4049 0.599609 15.5117V1.62109C0.599609 0.782552 2.65495 0.363281 6.76562 0.363281H14.791C15.0553 0.846354 15.2513 1.38867 15.3789 1.99023C15.5065 2.58268 15.5703 3.11589 15.5703 3.58984C15.5703 5.67708 14.6543 6.7207 12.8223 6.7207H8.0918C7.74544 6.7207 7.57227 6.86654 7.57227 7.1582V7.25391C7.57227 7.30859 7.58138 7.34505 7.59961 7.36328H13.6426C14.1074 8.15625 14.3398 9.04948 14.3398 10.043C14.3398 11.2826 14.0618 12.2487 13.5059 12.9414H6.80664C6.73372 13.0143 6.69727 13.0964 6.69727 13.1875C6.69727 13.3333 6.80664 13.4199 7.02539 13.4473C7.25326 13.4746 7.50846 13.4883 7.79102 13.4883C8.07357 13.4883 8.33789 13.4928 8.58398 13.502ZM19.4258 18.0137C18.4141 18.0137 17.6302 17.7448 17.0742 17.207C16.5273 16.6693 16.2539 15.8581 16.2539 14.7734V1.40234C16.737 0.992188 17.3249 0.677734 18.0176 0.458984C18.7194 0.23112 19.444 0.117188 20.1914 0.117188C21.2943 0.117188 22.2285 0.390625 22.9941 0.9375C23.8236 1.55729 24.2383 2.41406 24.2383 3.50781V10.9863C23.7279 11.0319 23.2266 11.1777 22.7344 11.4238C22.2422 11.6608 21.9961 11.9069 21.9961 12.1621C21.9961 12.3171 22.0827 12.4492 22.2559 12.5586C23.1582 11.8021 24.498 11.4238 26.2754 11.4238H29.5156C30.1172 12.4811 30.418 13.5612 30.418 14.6641C30.418 15.2109 30.3223 15.8171 30.1309 16.4824C29.9395 17.1478 29.6842 17.6582 29.3652 18.0137H19.4258ZM38.9766 2.83789V16.9609C38.5573 17.3255 37.9967 17.6309 37.2949 17.877C36.5931 18.123 35.7409 18.2461 34.7383 18.2461C33.7357 18.2461 32.8835 18.0228 32.1816 17.5762C31.3887 17.0931 30.9922 16.4095 30.9922 15.5254V1.40234C31.4115 1.03776 31.972 0.732422 32.6738 0.486328C33.3757 0.240234 34.2233 0.117188 35.2168 0.117188C36.2103 0.117188 37.0716 0.335938 37.8008 0.773438C38.5846 1.27474 38.9766 1.96289 38.9766 2.83789ZM48.3281 14.7871L46.7422 17.877C46.0586 18.1322 45.3158 18.2598 44.5137 18.2598C43.1009 18.2598 41.9434 17.8587 41.041 17.0566C40.1387 16.2546 39.6875 15.1745 39.6875 13.8164C39.6875 12.6133 40.0931 11.5423 40.9043 10.6035C41.7155 9.66471 42.8639 8.8763 44.3496 8.23828C44.2402 7.9375 44.0534 7.78711 43.7891 7.78711C43.5247 7.78711 43.0417 8.02865 42.3398 8.51172C41.6562 8.15625 41.0547 7.56836 40.5352 6.74805C40.0247 5.92773 39.7695 4.97982 39.7695 3.9043C39.7695 2.82878 40.166 1.9082 40.959 1.14258C41.752 0.376953 42.8457 -0.00585938 44.2402 -0.00585938C45.4434 -0.00585938 46.4323 0.217448 47.207 0.664062L48.6562 3.54883L49.832 0.595703C50.6068 0.249349 51.4727 0.0761719 52.4297 0.0761719C53.7878 0.0761719 54.8906 0.44987 55.7383 1.19727C56.5859 1.96289 57.0098 3.03385 57.0098 4.41016C57.0098 5.54948 56.5996 6.62044 55.7793 7.62305C54.9681 8.61654 53.9245 9.40495 52.6484 9.98828C52.7487 10.2526 52.9264 10.3848 53.1816 10.3848C53.446 10.3848 53.8698 10.1842 54.4531 9.7832L57.2695 13.3105C57.2695 14.778 56.9049 15.9492 56.1758 16.8242C55.3737 17.7904 54.2663 18.2734 52.8535 18.2734C50.7025 18.2734 49.194 17.1113 48.3281 14.7871ZM63.4492 13.8438C63.7044 13.8438 63.832 13.7025 63.832 13.4199C61.8177 12.0801 60.2773 10.4349 59.2109 8.48438C58.1536 6.53385 57.5612 4.38281 57.4336 2.03125C57.8438 1.42057 58.4544 0.951172 59.2656 0.623047C60.0859 0.294922 60.929 0.130859 61.7949 0.130859C62.9342 0.130859 63.9141 0.354167 64.7344 0.800781C65.2448 2.17708 65.6641 3.48958 65.9922 4.73828C65.5456 6.70703 65.3223 7.69141 65.3223 7.69141C65.2858 7.82812 65.2676 7.95573 65.2676 8.07422C65.2676 8.38411 65.4316 8.53906 65.7598 8.53906C65.8691 8.19271 66.1243 7.14453 66.5254 5.39453C66.6257 4.94792 66.7578 4.32812 66.9219 3.53516C67.0951 2.73307 67.3138 1.78971 67.5781 0.705078C68.4167 0.304036 69.3737 0.103516 70.4492 0.103516C71.7526 0.103516 72.7917 0.422526 73.5664 1.06055C74.3411 1.68945 74.7285 2.60091 74.7285 3.79492C74.7285 5.54492 74.2363 7.24935 73.252 8.9082C72.4772 10.2207 71.4518 11.4466 70.1758 12.5859V17.0977C69.4193 17.5625 68.7402 17.8678 68.1387 18.0137C67.5371 18.1686 66.9036 18.2461 66.2383 18.2461C64.9805 18.2461 63.9915 18.0091 63.2715 17.5352C62.5514 17.0612 62.1914 16.3548 62.1914 15.416V13.0098C62.3555 13.1738 62.5651 13.3561 62.8203 13.5566C63.0755 13.748 63.2852 13.8438 63.4492 13.8438Z" fill="url(#paint0_linear_47_30)"/>
<defs>
<linearGradient id="paint0_linear_47_30" x1="37.5" y1="23" x2="37.5" y2="-1" gradientUnits="userSpaceOnUse">
<stop stop-color="#F5C518"/>
<stop offset="1" stop-color="white"/>
</linearGradient>
</defs>
</svg>
